HIERARCHY
ROOT Hips
{
	OFFSET -0.001795 -0.223333 0.028219
	CHANNELS 6 Xposition Yposition Zposition Zrotation Yrotation Xrotation 
	JOINT LeftUpLeg
	{
		OFFSET 0.069520 -0.091406 -0.006815
		CHANNELS 3 Zrotation Yrotation Xrotation
		JOINT LeftLeg
		{
			OFFSET 0.034277 -0.375199 -0.004496
			CHANNELS 3 Zrotation Yrotation Xrotation
			JOINT LeftFoot
			{
				OFFSET -0.013596 -0.397961 -0.043693
				CHANNELS 3 Zrotation Yrotation Xrotation
				JOINT LeftToe
				{
					OFFSET 0.026358 -0.055791 0.119288
					CHANNELS 3 Zrotation Yrotation Xrotation
					End Site
					{
						OFFSET 0.000000 0.000000 0.000000
					}
				}
			}
		}
	}
	JOINT RightUpLeg
	{
		OFFSET -0.067670 -0.090522 -0.004320
		CHANNELS 3 Zrotation Yrotation Xrotation
		JOINT RightLeg
		{
			OFFSET -0.038290 -0.382569 -0.008850
			CHANNELS 3 Zrotation Yrotation Xrotation
			JOINT RightFoot
			{
				OFFSET 0.015774 -0.398415 -0.042312
				CHANNELS 3 Zrotation Yrotation Xrotation
				JOINT RightToe
				{
					OFFSET -0.025372 -0.048144 0.123348
					CHANNELS 3 Zrotation Yrotation Xrotation
					End Site
					{
						OFFSET 0.000000 0.000000 0.000000
					}
				}
			}
		}
	}
	JOINT Spine
	{
		OFFSET -0.002533 0.108963 -0.026696
		CHANNELS 3 Zrotation Yrotation Xrotation
		JOINT Spine1
		{
			OFFSET 0.005487 0.135180 0.001092
			CHANNELS 3 Zrotation Yrotation Xrotation
			JOINT Spine2
			{
				OFFSET 0.001457 0.052922 0.025425
				CHANNELS 3 Zrotation Yrotation Xrotation
				JOINT Neck
				{
					OFFSET -0.002778 0.213870 -0.042857
					CHANNELS 3 Zrotation Yrotation Xrotation
					JOINT Head
					{
						OFFSET 0.005152 0.064970 0.051349
						CHANNELS 3 Zrotation Yrotation Xrotation
						End Site
						{
							OFFSET 0.000000 0.000000 0.000000
						}
					}
				}
				JOINT LeftShoulder
				{
					OFFSET 0.078845 0.121749 -0.034090
					CHANNELS 3 Zrotation Yrotation Xrotation
					JOINT LeftArm
					{
						OFFSET 0.090977 0.030469 -0.008868
						CHANNELS 3 Zrotation Yrotation Xrotation
						JOINT LeftForeArm
						{
							OFFSET 0.259612 -0.012772 -0.027456
							CHANNELS 3 Zrotation Yrotation Xrotation
							JOINT LeftHand
							{
								OFFSET 0.249234 0.008986 -0.001171
								CHANNELS 3 Zrotation Yrotation Xrotation
								End Site
								{
									OFFSET 0.000000 0.000000 0.000000
								}
							}
						}
					}
				}
				JOINT RightShoulder
				{
					OFFSET -0.081759 0.118833 -0.038615
					CHANNELS 3 Zrotation Yrotation Xrotation
					JOINT RightArm
					{
						OFFSET -0.096012 0.032551 -0.009143
						CHANNELS 3 Zrotation Yrotation Xrotation
						JOINT RightForeArm
						{
							OFFSET -0.253742 -0.013329 -0.021401
							CHANNELS 3 Zrotation Yrotation Xrotation
							JOINT RightHand
							{
								OFFSET -0.255298 0.007772 -0.005559
								CHANNELS 3 Zrotation Yrotation Xrotation
								End Site
								{
									OFFSET 0.000000 0.000000 0.000000
								}
							}
						}
					}
				}
			}
		}
	}
}
MOTION
Frames: 7
Frame Time: 0.050000
0.021599 0.958974 -0.038656 -0.257909 -5.378245 10.861654 3.865531 -0.458041 -5.970322 0.937719 0.169955 -6.352053 0.880242 5.388345 12.148588 0.000000 0.000000 0.000000 -4.500040 1.015709 -11.697925 -3.010023 0.031987 -3.770382 5.384436 4.120800 13.200255 0.000000 0.000000 0.000000 4.815148 0.073782 -3.323939 4.602118 -1.951944 -2.562610 -2.346698 -4.820210 1.947366 0.585829 0.141487 -16.083241 0.000000 0.000000 0.000000 -3.015903 -28.451110 11.626362 -64.230844 -60.876633 33.213321 -22.310081 -73.646970 21.988654 0.000000 0.000000 0.000000 8.156027 2.383228 -0.565540 66.699571 4.895078 -4.114836 -67.460658 77.955042 -56.402771 0.000000 0.000000 0.000000 
0.020251 0.959746 -0.039910 -0.595122 -4.819594 10.953200 4.131754 -0.463798 -6.135238 1.074788 0.139097 -5.869103 0.580666 4.959483 12.158189 0.000000 0.000000 0.000000 -4.048113 1.038994 -11.862861 -2.968000 0.027684 -3.828263 5.270998 3.909552 13.327284 0.000000 0.000000 0.000000 5.264162 0.047503 -3.135118 4.168796 -1.747849 -2.858444 -1.723455 -3.517846 1.998509 0.699554 0.217657 -16.389080 0.000000 0.000000 0.000000 -3.597544 -28.533820 11.627940 -62.754586 -60.593149 31.681198 -18.598977 -73.950547 18.972452 0.000000 0.000000 0.000000 8.229488 2.913833 -0.196272 66.148900 7.611726 -2.330423 -68.694128 72.745025 -52.260206 0.000000 0.000000 0.000000 
0.018773 0.960126 -0.040892 -0.835409 -3.707635 10.998214 4.560783 -0.472249 -6.329632 1.054764 0.139055 -5.819522 -0.088129 4.072780 12.453992 0.000000 0.000000 0.000000 -4.020216 1.010152 -11.620911 -2.385494 -0.017833 -4.060626 5.059130 3.572172 13.531189 0.000000 0.000000 0.000000 5.529864 0.024585 -2.997553 4.113489 -1.701310 -3.206914 -1.401846 -2.412339 2.229140 1.302789 0.023809 -16.544735 0.000000 0.000000 0.000000 -3.827203 -28.234183 11.337471 -61.479339 -59.601401 29.758794 -15.760473 -74.546938 16.668258 0.000000 0.000000 0.000000 8.311711 3.687741 0.306576 65.877941 11.113124 -0.124559 -67.457953 66.023062 -44.865016 0.000000 0.000000 0.000000 
0.016997 0.960438 -0.041409 -0.796209 -1.670706 10.954906 4.822441 -0.515542 -6.996990 1.199649 0.094301 -4.994573 -1.465865 1.957801 12.154603 0.000000 0.000000 0.000000 -3.986386 0.960731 -11.259639 -2.213337 -0.009374 -3.850598 4.109846 2.098978 13.491577 0.000000 0.000000 0.000000 5.554106 0.006494 -2.903104 3.979970 -1.618101 -3.490778 -1.176438 -1.249180 2.092049 1.699268 0.007104 -16.615051 0.000000 0.000000 0.000000 -3.905932 -27.672252 10.821585 -59.915787 -58.812928 27.795587 -19.034997 -75.351514 18.964644 0.000000 0.000000 0.000000 8.857870 4.084877 0.687009 65.483977 13.378722 1.455868 -65.693174 60.393070 -38.227045 0.000000 0.000000 0.000000 
0.014800 0.960223 -0.041529 -0.771613 0.604479 10.903482 5.194932 -0.553598 -7.534619 1.075189 0.083732 -4.509412 -2.858082 -0.123916 12.027201 0.000000 0.000000 0.000000 -3.910412 0.896155 -10.645422 -1.926229 -0.025632 -3.930163 3.017620 0.457186 13.325260 0.000000 0.000000 0.000000 5.599867 0.031134 -3.292267 4.084948 -1.596084 -4.301899 -0.901541 -0.181399 2.738994 2.172023 -0.091628 -16.302948 0.000000 0.000000 0.000000 -3.928817 -26.561736 10.062653 -58.307149 -56.923483 25.064864 -25.232709 -76.825190 23.918666 0.000000 0.000000 0.000000 9.251312 3.464702 0.682914 65.327347 14.324580 2.169887 -64.071077 57.270051 -33.838798 0.000000 0.000000 0.000000 
0.012206 0.960379 -0.041373 -0.538806 3.878549 10.659067 5.357051 -0.608322 -8.080038 0.889154 0.061004 -3.578244 -4.550329 -2.604332 11.923990 0.000000 0.000000 0.000000 -3.767604 0.797144 -9.596742 -1.631430 -0.024594 -3.716968 1.468406 -1.822318 12.904251 0.000000 0.000000 0.000000 5.346928 0.083120 -3.988802 4.063415 -1.591668 -3.937503 -0.986795 0.730665 2.873635 2.995755 -0.305475 -16.400759 0.000000 0.000000 0.000000 -4.015318 -25.387369 9.241577 -54.580889 -54.474710 21.033577 -37.987877 -78.043656 34.203439 0.000000 0.000000 0.000000 9.913717 3.395100 0.980258 64.650214 15.313842 2.943796 -62.949329 52.347256 -28.707051 0.000000 0.000000 0.000000 
0.009171 0.959646 -0.040946 -0.168965 6.211707 10.558047 5.293895 -0.643075 -8.263571 1.188086 0.025000 -3.119035 -5.751176 -4.523535 11.620194 0.000000 0.000000 0.000000 -4.040950 0.723551 -9.000748 -0.951603 -0.062204 -3.537510 0.818927 -2.508886 12.282805 0.000000 0.000000 0.000000 5.059353 0.112597 -4.447525 3.551879 -1.321407 -4.374771 -0.535710 1.851631 3.650584 3.301749 -0.389349 -15.417684 0.000000 0.000000 0.000000 -4.113951 -23.121620 8.071609 -50.372512 -49.299234 15.823583 -59.870796 -80.615631 54.429351 0.000000 0.000000 0.000000 10.462610 2.698522 0.975483 63.443698 15.032812 2.792981 -61.562458 51.028551 -26.175616 0.000000 0.000000 0.000000 
